<svg xmlns="http://www.w3.org/2000/svg" viewBox="0 0 250.9 250.68"><defs><style>.cls-1{fill:#0e2332;}</style></defs><title>资源 4</title><g id="图层_2" data-name="图层 2"><g id="Layer_1" data-name="Layer 1"><path class="cls-1" d="M226.48,61.35l1-7.42,7.43-1a6.26,6.26,0,0,0,5.41-5.62L242,29.4a6.26,6.26,0,0,0-1.81-5L226.37,10.62a6.23,6.23,0,0,0-5-1.81l-18,1.58a6.25,6.25,0,0,0-5.65,5.42l-1,7.42-7.43,1a6.25,6.25,0,0,0-5.42,5.65l-1.29,14.8-71.69,71.7a6.23,6.23,0,0,0,0,8.83l14.57,14.57a6.25,6.25,0,0,0,8.84,0l22.1-22.1c3.32,8.46,4.91,21.67-9.84,32.5-2.25,1.64-4.71,3.28-7.09,4.87-2,1.36-3.93,2.63-5.49,3.76a5.84,5.84,0,0,0-.48.39c-11.4,10.14-12.4,15.77-15.38,32.48-.48,2.67-1,5.68-1.66,9.11-2.2,11.62-11.78,21.68-13.68,23.58a46.78,46.78,0,0,1-31.19,13.81c-13.93.47-28-6-40.55-18.54s-19-26.6-18.55-40.56a46.8,46.8,0,0,1,13.81-31.18c1.9-1.9,12-11.49,23.58-13.68,3.43-.65,6.44-1.18,9.11-1.66,16.71-3,22.34-4,32.49-15.38l.39-.49c1.12-1.55,2.4-3.46,3.75-5.49,1.59-2.38,3.23-4.84,4.88-7.08,6.42-8.75,14.78-12.88,24.14-12A6.25,6.25,0,1,0,125.9,79.7c-13.84-1.37-26.4,4.67-35.45,17-1.81,2.47-3.61,5.16-5.2,7.54C84.07,106,83,107.69,82,109.08c-7.1,7.94-9.27,8.32-25.13,11.15-2.71.49-5.76,1-9.23,1.69-14.85,2.8-26.8,13.81-30.11,17.12A59.38,59.38,0,0,0,0,178.67c-.39,12.2,3.15,30.74,22.2,49.79,18.17,18.17,35.89,22.22,48.07,22.22.59,0,1.16,0,1.72,0a59.48,59.48,0,0,0,39.63-17.47c3.3-3.31,14.32-15.26,17.12-30.1.65-3.48,1.2-6.53,1.68-9.24,2.83-15.86,3.22-18,11.15-25.12,1.39-1,3.07-2.11,4.84-3.3,2.38-1.59,5.07-3.39,7.54-5.2,19-13.92,22.63-36.08,9.29-56.44h0l-.06-.07a6.39,6.39,0,0,0-1.7-1.7c-.19-.12-.39-.21-.58-.31s-.31-.18-.48-.25a7.81,7.81,0,0,0-.82-.26c-.11,0-.21-.07-.32-.09a6.78,6.78,0,0,0-.88-.1c-.11,0-.21,0-.32,0a6.22,6.22,0,0,0-1,.08l-.23,0a6.19,6.19,0,0,0-3.29,1.72L129.91,126.5l-5.73-5.73,66.47-66.46A6.24,6.24,0,0,0,194.79,49l1.14-13,7.21-.94a6.26,6.26,0,0,0,5.39-5.39l.94-7.22,10.12-.88,9.65,9.65-.93,10-7.25.94a6.24,6.24,0,0,0-5.38,5.39l-1,7.24-13,1.21a6.22,6.22,0,0,0-5.16,3.81L167.13,89.28A6.25,6.25,0,0,0,176,98.12l30-30,14.93-1.38A6.25,6.25,0,0,0,226.48,61.35ZM184.13,25.2a6.22,6.22,0,1,0-8.79,0A6.21,6.21,0,0,0,184.13,25.2Zm14.6-14.59a6.22,6.22,0,1,0-8.79,0A6.23,6.23,0,0,0,198.73,10.61Zm27,56.16a6.22,6.22,0,1,0,8.79,0A6.21,6.21,0,0,0,225.7,66.77ZM96,177.33a22.6,22.6,0,1,0-16-6.62A22.55,22.55,0,0,0,96,177.33Zm-7.16-29.77a10.13,10.13,0,1,1-3,7.16A10.09,10.09,0,0,1,88.81,147.56ZM249.08,52.18a6.21,6.21,0,1,0,0,8.78A6.21,6.21,0,0,0,249.08,52.18ZM33.67,176.44a6.25,6.25,0,0,0,0,8.84L65.41,217a6.25,6.25,0,0,0,8.83-8.84L42.51,176.44A6.25,6.25,0,0,0,33.67,176.44Z"/></g></g></svg>