<svg xmlns="http://www.w3.org/2000/svg" viewBox="0 0 237.5 237.5"><defs><style>.cls-1{fill:#0e2332;}</style></defs><title>资源 1</title><g id="图层_2" data-name="图层 2"><g id="Layer_1" data-name="Layer 1"><path class="cls-1" d="M100.53,71.15a346.43,346.43,0,0,1,48,.82L130.15,93.16a6.25,6.25,0,1,0,9.45,8.18l78.82-91A6.25,6.25,0,0,0,209,2.16l-50.8,58.66a6.33,6.33,0,0,0-2.22-.69,358.15,358.15,0,0,0-56.07-1.46,6.25,6.25,0,1,0,.65,12.48ZM237.5,100c0-14-16.32-25.89-45.94-33.56a6.25,6.25,0,1,0-3.13,12.1C213.69,85.05,225,94,225,100c0,12.23-40.42,29.29-106.25,29.29S12.5,112.2,12.5,100c0-4.88,8-13,30.45-19.74a200.44,200.44,0,0,1,26.31-5.84l31.2,36a6.25,6.25,0,1,0,9.45-8.19l-78.82-91a6.25,6.25,0,0,0-9.45,8.19l38.07,44a201.92,201.92,0,0,0-20.37,4.9C13.6,76,0,87,0,100H0v95.72c0,27.44,59.74,41.79,118.75,41.79S237.5,223.15,237.5,195.71V100h0ZM225,193.32c0,12.23-40.42,29.3-106.25,29.3S12.5,205.55,12.5,193.32V149.68c20.59,14.51,63.61,22,106.25,22a338.77,338.77,0,0,0,44.62-2.85,224.28,224.28,0,0,0,35.49-7.44c11-3.38,19.77-7.35,26.14-11.82Zm0-63.43c0,4.81-7.81,12.82-29.8,19.55a210.72,210.72,0,0,1-33.49,7,327.31,327.31,0,0,1-43,2.74c-65.83,0-106.25-17.07-106.25-29.3V119.74c20.58,14.52,63.6,22,106.25,22s85.67-7.5,106.25-22Z"/></g></g></svg>