<svg xmlns="http://www.w3.org/2000/svg" viewBox="0 0 237.5 237.5"><defs><style>.cls-1{fill:#0e2332;}</style></defs><title>资源 5</title><g id="图层_2" data-name="图层 2"><g id="Layer_1" data-name="Layer 1"><path class="cls-1" d="M118.75,0A118.75,118.75,0,1,0,237.5,118.75,118.88,118.88,0,0,0,118.75,0Zm0,225A106.25,106.25,0,1,1,225,118.75,106.37,106.37,0,0,1,118.75,225ZM73,39.44a92,92,0,0,0-45.79,79.31,6.25,6.25,0,0,0,12.5,0A79.38,79.38,0,0,1,79.21,50.26,6.25,6.25,0,0,0,73,39.44Zm45.8,45.41a33.9,33.9,0,1,0,33.9,33.9A33.94,33.94,0,0,0,118.75,84.85Zm0,55.3a21.4,21.4,0,1,1,21.4-21.4A21.42,21.42,0,0,1,118.75,140.15Zm85.34-27.65a6.25,6.25,0,0,0-6.25,6.25,79.38,79.38,0,0,1-39.55,68.49,6.25,6.25,0,0,0,6.26,10.82,92,92,0,0,0,45.79-79.31A6.25,6.25,0,0,0,204.09,112.5Z"/></g></g></svg>