<svg xmlns="http://www.w3.org/2000/svg" viewBox="0 0 235.82 271.94"><defs><style>.cls-1{fill:#fff;fill-rule:evenodd;}</style></defs><title>pause</title><g id="图层_2" data-name="图层 2"><g id="Object"><path class="cls-1" d="M47.16,0h0C73.11,0,94.33,20.39,94.33,45.32v181.3c0,24.93-21.22,45.32-47.16,45.32h0C21.22,271.94,0,251.55,0,226.62V45.32C0,20.39,21.22,0,47.16,0M188.65,0c-25.94,0-47.16,20.39-47.16,45.32v181.3c0,24.93,21.22,45.32,47.16,45.32h0c25.94,0,47.16-20.39,47.16-45.32V45.32C235.82,20.39,214.6,0,188.66,0h0"/></g></g></svg>