<svg xmlns="http://www.w3.org/2000/svg" viewBox="0 0 251.39 271.94"><defs><style>.cls-1{fill:#fff;fill-rule:evenodd;}</style></defs><title>play</title><g id="图层_2" data-name="图层 2"><g id="Object"><path class="cls-1" d="M247.61,123.62h0l.3.46v0l.28.45,0,0h0l.25.43a22,22,0,0,1-.22,22.24c-.64,2.28-5.92,6.69-8.09,8L35.38,268.88a24.38,24.38,0,0,1-11.8,3.06c-6.66-1.72-8.46.05-15.11-5.3a23.4,23.4,0,0,1-5.3-6.06h0l0-.05-.27-.46h0l-.27-.49h0l0-.06A21.87,21.87,0,0,1,0,249.27V22.65A21.78,21.78,0,0,1,2.89,11.82a22.79,22.79,0,0,1,8.49-8.53A24.41,24.41,0,0,1,35.4,3l204.23,113.3a23,23,0,0,1,8,7.3"/></g></g></svg>