<svg xmlns="http://www.w3.org/2000/svg" viewBox="0 0 347.23 254.64"><defs><style>.cls-1{fill:#fff;fill-rule:evenodd;}</style></defs><title>reset</title><g id="图层_2" data-name="图层 2"><g id="Object"><path class="cls-1" d="M173.9,23.15q28.08,0,55.64,2.08A50.25,50.25,0,0,1,276,71.68q1,13.5,1.54,27.15l-26-26a11.58,11.58,0,1,0-16.94,15.78l.58.58,46.3,46.3a11.58,11.58,0,0,0,16.36,0l46.29-46.3a11.57,11.57,0,0,0-16.35-16.36l-27,27q-.54-15-1.67-29.92A73.4,73.4,0,0,0,231.28,2.16a763.09,763.09,0,0,0-114.75,0A73.4,73.4,0,0,0,48.75,69.94c-.27,3.46-.51,6.9-.71,10.37a11.57,11.57,0,1,0,23.08,1.77c0-.11,0-.23,0-.35q.3-5,.68-10a50.25,50.25,0,0,1,46.45-46.45Q145.81,23.15,173.9,23.15Zm-107.56,96a11.58,11.58,0,0,0-16.36,0l-46.3,46.3a11.57,11.57,0,0,0,15.78,16.93,7.93,7.93,0,0,0,.58-.58l27-27c.35,10,.93,20,1.67,29.93a73.4,73.4,0,0,0,67.78,67.78,763.09,763.09,0,0,0,114.75,0,73.4,73.4,0,0,0,67.78-67.78c.26-3.45.49-6.9.71-10.37a11.57,11.57,0,0,0-23.1-1.42q-.3,5-.68,10a50.24,50.24,0,0,1-46.45,46.45,738,738,0,0,1-111.27,0A50.24,50.24,0,0,1,71.82,183q-1-13.56-1.55-27.14l26,26a11.57,11.57,0,0,0,16.36-16.35Z"/></g></g></svg>