<svg xmlns="http://www.w3.org/2000/svg" viewBox="0 0 255.08 230.16"><defs><style>.cls-1{fill:#fff;fill-rule:evenodd;}</style></defs><title>restart</title><g id="图层_2" data-name="图层 2"><g id="Object"><path class="cls-1" d="M231.7,0h0c-12.86,0-23.38,10.11-23.38,22.47V103a19.7,19.7,0,0,0-5.5-4.52L30,2.55A20.46,20.46,0,0,0,19.56,0,20.66,20.66,0,0,0,9.63,2.78,19.28,19.28,0,0,0,2.45,10,18.44,18.44,0,0,0,0,19.18V211a18.46,18.46,0,0,0,2.16,8.66l0,.05h0l.23.41h0l.23.39,0,0a19.62,19.62,0,0,0,4.49,5.13c5.63,4.53,7.15,3,12.79,4.48a20.63,20.63,0,0,0,10-2.58L203.29,131.4a29.07,29.07,0,0,0,5-4.16v80.42c0,12.36,10.52,22.47,23.38,22.47h0c12.86,0,23.38-10.11,23.38-22.47V22.51C255.08,10.15,244.56,0,231.7,0Z"/></g></g></svg>