<svg xmlns="http://www.w3.org/2000/svg" viewBox="0 0 237.5 181.92"><defs><style>.cls-1{fill:#0e2332;}</style></defs><title>资源 2</title><g id="图层_2" data-name="图层 2"><g id="Layer_1" data-name="Layer 1"><path class="cls-1" d="M216.63.08a6.25,6.25,0,0,0,0,12.5A8.52,8.52,0,0,1,225,21.24V160.76a8.53,8.53,0,0,1-8.37,8.66h-32V116.24H190a12.2,12.2,0,0,0,12.18-12.18V12.18A12.2,12.2,0,0,0,190,0H166.89a12.2,12.2,0,0,0-12.18,12.18v91.88a12.2,12.2,0,0,0,12.18,12.18h5.28v53.18H125V116.24h5.28a12.2,12.2,0,0,0,12.18-12.18V12.18A12.2,12.2,0,0,0,130.28,0H107.22A12.2,12.2,0,0,0,95,12.18v91.88a12.2,12.2,0,0,0,12.18,12.18h5.28v53.18H65.33V116.24h5.28a12.19,12.19,0,0,0,12.17-12.18V12.18A12.19,12.19,0,0,0,70.61,0H47.55A12.2,12.2,0,0,0,35.37,12.18v91.88a12.2,12.2,0,0,0,12.18,12.18h5.28v53.18h-32a8.53,8.53,0,0,1-8.37-8.66V21.24a8.52,8.52,0,0,1,8.37-8.66,6.25,6.25,0,0,0,0-12.5A21,21,0,0,0,0,21.24V160.76a21,21,0,0,0,20.87,21.16H216.63a21,21,0,0,0,20.87-21.16V21.24A21,21,0,0,0,216.63.08ZM47.87,103.74V12.5H70.28v91.24Zm59.67,0V12.5H130v91.24Zm59.67,0V12.5h22.42v91.24Z"/></g></g></svg>